<svg xmlns="http://www.w3.org/2000/svg" viewBox="0 0 600 1000" font-family="Helvetica Neue, Helvetica, Arial, sans-serif">
<rect x="90" y="70" width="58" height="58" rx="6" fill="#fde68a" stroke="#b45309" stroke-width="4"/>
<rect x="162" y="70" width="58" height="58" rx="6" fill="#eef2ef" stroke="#d1d5db" stroke-width="4"/>
<rect x="234" y="70" width="58" height="58" rx="6" fill="#eef2ef" stroke="#d1d5db" stroke-width="4"/>
<rect x="306" y="70" width="58" height="58" rx="6" fill="#eef2ef" stroke="#d1d5db" stroke-width="4"/>
<rect x="378" y="70" width="58" height="58" rx="6" fill="#eef2ef" stroke="#d1d5db" stroke-width="4"/>
<rect x="450" y="70" width="58" height="58" rx="6" fill="#eef2ef" stroke="#d1d5db" stroke-width="4"/>
<rect x="90" y="142" width="58" height="58" rx="6" fill="#eef2ef" stroke="#d1d5db" stroke-width="4"/>
<rect x="162" y="142" width="58" height="58" rx="6" fill="#eef2ef" stroke="#d1d5db" stroke-width="4"/>
<rect x="234" y="142" width="58" height="58" rx="6" fill="#eef2ef" stroke="#d1d5db" stroke-width="4"/>
<rect x="306" y="142" width="58" height="58" rx="6" fill="#eef2ef" stroke="#d1d5db" stroke-width="4"/>
<rect x="378" y="142" width="58" height="58" rx="6" fill="#eef2ef" stroke="#d1d5db" stroke-width="4"/>
<rect x="450" y="142" width="58" height="58" rx="6" fill="#eef2ef" stroke="#d1d5db" stroke-width="4"/>
<rect x="90" y="214" width="58" height="58" rx="6" fill="#eef2ef" stroke="#d1d5db" stroke-width="4"/>
<rect x="162" y="214" width="58" height="58" rx="6" fill="#eef2ef" stroke="#d1d5db" stroke-width="4"/>
<rect x="234" y="214" width="58" height="58" rx="6" fill="#fde68a" stroke="#b45309" stroke-width="4"/>
<rect x="306" y="214" width="58" height="58" rx="6" fill="#eef2ef" stroke="#d1d5db" stroke-width="4"/>
<rect x="378" y="214" width="58" height="58" rx="6" fill="#eef2ef" stroke="#d1d5db" stroke-width="4"/>
<rect x="450" y="214" width="58" height="58" rx="6" fill="#eef2ef" stroke="#d1d5db" stroke-width="4"/>
<rect x="90" y="286" width="58" height="58" rx="6" fill="#fde68a" stroke="#b45309" stroke-width="4"/>
<rect x="162" y="286" width="58" height="58" rx="6" fill="#eef2ef" stroke="#d1d5db" stroke-width="4"/>
<rect x="234" y="286" width="58" height="58" rx="6" fill="#eef2ef" stroke="#d1d5db" stroke-width="4"/>
<rect x="306" y="286" width="58" height="58" rx="6" fill="#eef2ef" stroke="#d1d5db" stroke-width="4"/>
<rect x="378" y="286" width="58" height="58" rx="6" fill="#eef2ef" stroke="#d1d5db" stroke-width="4"/>
<rect x="450" y="286" width="58" height="58" rx="6" fill="#fde68a" stroke="#b45309" stroke-width="4"/>
<rect x="90" y="358" width="58" height="58" rx="6" fill="#eef2ef" stroke="#d1d5db" stroke-width="4"/>
<rect x="162" y="358" width="58" height="58" rx="6" fill="#eef2ef" stroke="#d1d5db" stroke-width="4"/>
<rect x="234" y="358" width="58" height="58" rx="6" fill="#fde68a" stroke="#b45309" stroke-width="4"/>
<rect x="306" y="358" width="58" height="58" rx="6" fill="#eef2ef" stroke="#d1d5db" stroke-width="4"/>
<rect x="378" y="358" width="58" height="58" rx="6" fill="#fde68a" stroke="#b45309" stroke-width="4"/>
<rect x="450" y="358" width="58" height="58" rx="6" fill="#eef2ef" stroke="#d1d5db" stroke-width="4"/>
<rect x="90" y="430" width="58" height="58" rx="6" fill="#fde68a" stroke="#b45309" stroke-width="4"/>
<rect x="162" y="430" width="58" height="58" rx="6" fill="#eef2ef" stroke="#d1d5db" stroke-width="4"/>
<rect x="234" y="430" width="58" height="58" rx="6" fill="#eef2ef" stroke="#d1d5db" stroke-width="4"/>
<rect x="306" y="430" width="58" height="58" rx="6" fill="#eef2ef" stroke="#d1d5db" stroke-width="4"/>
<rect x="378" y="430" width="58" height="58" rx="6" fill="#eef2ef" stroke="#d1d5db" stroke-width="4"/>
<rect x="450" y="430" width="58" height="58" rx="6" fill="#eef2ef" stroke="#d1d5db" stroke-width="4"/>
<rect x="90" y="502" width="58" height="58" rx="6" fill="#eef2ef" stroke="#d1d5db" stroke-width="4"/>
<rect x="162" y="502" width="58" height="58" rx="6" fill="#eef2ef" stroke="#d1d5db" stroke-width="4"/>
<rect x="234" y="502" width="58" height="58" rx="6" fill="#eef2ef" stroke="#d1d5db" stroke-width="4"/>
<rect x="306" y="502" width="58" height="58" rx="6" fill="#eef2ef" stroke="#d1d5db" stroke-width="4"/>
<rect x="378" y="502" width="58" height="58" rx="6" fill="#eef2ef" stroke="#d1d5db" stroke-width="4"/>
<rect x="450" y="502" width="58" height="58" rx="6" fill="#eef2ef" stroke="#d1d5db" stroke-width="4"/>
<rect x="90" y="574" width="58" height="58" rx="6" fill="#eef2ef" stroke="#d1d5db" stroke-width="4"/>
<rect x="162" y="574" width="58" height="58" rx="6" fill="#eef2ef" stroke="#d1d5db" stroke-width="4"/>
<rect x="234" y="574" width="58" height="58" rx="6" fill="#eef2ef" stroke="#d1d5db" stroke-width="4"/>
<rect x="306" y="574" width="58" height="58" rx="6" fill="#eef2ef" stroke="#d1d5db" stroke-width="4"/>
<rect x="378" y="574" width="58" height="58" rx="6" fill="#fde68a" stroke="#b45309" stroke-width="4"/>
<rect x="450" y="574" width="58" height="58" rx="6" fill="#eef2ef" stroke="#d1d5db" stroke-width="4"/>
<text x="300" y="760" font-size="90" fill="#b45309" font-weight="700" text-anchor="middle" font-family="Helvetica Neue, Helvetica, Arial, sans-serif">8 of 524</text>
<text x="300" y="850" font-size="60" fill="#14281d" font-weight="700" text-anchor="middle" font-family="Helvetica Neue, Helvetica, Arial, sans-serif">cost time</text>
<text x="300" y="940" font-size="56" fill="#7a8a80" font-weight="400" text-anchor="middle" font-family="Helvetica Neue, Helvetica, Arial, sans-serif">phone call first</text>
</svg>
